<svg width="100" height="109" viewBox="0 0 100 109" fill="none" xmlns="http://www.w3.org/2000/svg">
<path d="M37.5533 39.4441C26.1039 28.3041 33.9906 8.88892 49.9651 8.88892C65.9397 8.88892 73.8264 28.3041 62.377 39.4441L49.9651 51.5205L37.5533 39.4441Z" fill="#A7FC00"/>
<path d="M37.6255 78.3338C26.1761 89.4737 34.0628 108.889 50.0374 108.889C66.012 108.889 73.8987 89.4737 62.4493 78.3338L50.0374 66.2573L37.6255 78.3338Z" fill="#A7FC00"/>
<path d="M30.5551 71.3361C19.4152 82.7855 0 74.8988 0 58.9242C0 42.9496 19.4152 35.0629 30.5552 46.5123L42.6316 58.9242L30.5551 71.3361Z" fill="#A7FC00"/>
<path d="M69.4449 71.2641C80.5848 82.7135 100 74.8268 100 58.8522C100 42.8776 80.5848 34.9909 69.4448 46.4403L57.3684 58.8522L69.4449 71.2641Z" fill="#A7FC00"/>
</svg>
