<svg width="100" height="109" viewBox="0 0 100 109" fill="none" xmlns="http://www.w3.org/2000/svg">
<path d="M37.5533 39.444C26.1039 28.3041 33.9906 8.88889 49.9651 8.88889C65.9397 8.88889 73.8264 28.3041 62.377 39.444L49.9651 51.5205L37.5533 39.444Z" fill="#FCD300"/>
<path d="M37.6255 78.3337C26.1761 89.4737 34.0628 108.889 50.0374 108.889C66.012 108.889 73.8987 89.4737 62.4493 78.3337L50.0374 66.2573L37.6255 78.3337Z" fill="#FCD300"/>
<path d="M30.5551 71.336C19.4152 82.7854 0 74.8987 0 58.9241C0 42.9495 19.4152 35.0628 30.5552 46.5123L42.6316 58.9241L30.5551 71.336Z" fill="#FCD300"/>
<path d="M69.4449 71.264C80.5848 82.7134 100 74.8267 100 58.8521C100 42.8775 80.5848 34.9908 69.4448 46.4402L57.3684 58.8521L69.4449 71.264Z" fill="#FCD300"/>
</svg>
