<svg width="50" height="50" viewBox="0 0 50 50" fill="none" xmlns="http://www.w3.org/2000/svg">
<path d="M26.5145 7.68124C26.7024 7.48234 26.8494 7.24837 26.9469 6.99269C27.0444 6.737 27.0907 6.46461 27.0829 6.19106C27.0752 5.91752 27.0136 5.64818 26.9018 5.39841C26.79 5.14865 26.63 4.92336 26.4311 4.73541C26.2323 4.54745 25.9983 4.40051 25.7426 4.30298C25.4869 4.20545 25.2145 4.15923 24.941 4.16697C24.6674 4.17471 24.3981 4.23625 24.1483 4.34808C23.8986 4.45991 23.6733 4.61984 23.4853 4.81874L5.77698 23.5687C5.41128 23.9555 5.20752 24.4677 5.20752 25C5.20752 25.5323 5.41128 26.0444 5.77698 26.4312L23.4853 45.1833C23.672 45.3866 23.8973 45.5507 24.1479 45.6662C24.3986 45.7816 24.6698 45.8461 24.9456 45.8559C25.2214 45.8657 25.4964 45.8206 25.7547 45.7233C26.0129 45.6259 26.2492 45.4781 26.4499 45.2887C26.6506 45.0992 26.8116 44.8717 26.9236 44.6194C27.0356 44.3672 27.0964 44.0952 27.1024 43.8193C27.1084 43.5434 27.0595 43.269 26.9586 43.0121C26.8577 42.7552 26.7067 42.521 26.5145 42.3229L10.1561 25L26.5145 7.68124Z" fill="#474747"/>
</svg>
