<svg width="21" height="20" viewBox="0 0 21 20" fill="none" xmlns="http://www.w3.org/2000/svg">
<path d="M16.92 10L9.84333 17.2725C9.78507 17.3311 9.73901 17.4007 9.70781 17.4772C9.67662 17.5537 9.66091 17.6357 9.6616 17.7183C9.66228 17.801 9.67935 17.8826 9.71181 17.9586C9.74427 18.0346 9.79149 18.1034 9.85071 18.1611C9.90994 18.2187 9.98001 18.264 10.0569 18.2944C10.1337 18.3248 10.2158 18.3396 10.2985 18.338C10.3811 18.3364 10.4626 18.3185 10.5382 18.2852C10.6139 18.252 10.6822 18.204 10.7392 18.1442L18.2392 10.4358C18.3527 10.3192 18.4162 10.1628 18.4162 10C18.4162 9.83721 18.3527 9.68084 18.2392 9.56416L10.7392 1.85583C10.6822 1.79599 10.6139 1.74804 10.5382 1.71476C10.4626 1.68149 10.3811 1.66355 10.2985 1.66197C10.2158 1.6604 10.1337 1.67523 10.0569 1.7056C9.98001 1.73597 9.90994 1.78128 9.85071 1.83891C9.79149 1.89655 9.74427 1.96535 9.71181 2.04135C9.67935 2.11735 9.66228 2.19903 9.6616 2.28167C9.66091 2.3643 9.67662 2.44626 9.70781 2.52278C9.73901 2.59931 9.78507 2.66889 9.84333 2.7275L16.92 10Z" fill="#333333"/>
</svg>
