<svg width="50" height="50" viewBox="0 0 50 50" fill="none" xmlns="http://www.w3.org/2000/svg">
<path d="M23.4855 7.68124C23.2976 7.48234 23.1506 7.24837 23.0531 6.99269C22.9556 6.737 22.9093 6.46461 22.9171 6.19106C22.9248 5.91752 22.9864 5.64818 23.0982 5.39841C23.21 5.14865 23.37 4.92336 23.5689 4.73541C23.7677 4.54745 24.0017 4.40051 24.2574 4.30298C24.5131 4.20545 24.7855 4.15923 25.059 4.16697C25.3326 4.17471 25.6019 4.23625 25.8517 4.34808C26.1014 4.45991 26.3267 4.61984 26.5147 4.81874L44.223 23.5687C44.5887 23.9555 44.7925 24.4677 44.7925 25C44.7925 25.5323 44.5887 26.0444 44.223 26.4312L26.5147 45.1833C26.328 45.3866 26.1027 45.5507 25.8521 45.6662C25.6014 45.7816 25.3302 45.8461 25.0544 45.8559C24.7786 45.8657 24.5036 45.8206 24.2453 45.7233C23.9871 45.6259 23.7508 45.4781 23.5501 45.2887C23.3494 45.0992 23.1884 44.8717 23.0764 44.6194C22.9644 44.3672 22.9036 44.0952 22.8976 43.8193C22.8916 43.5434 22.9405 43.269 23.0414 43.0121C23.1423 42.7552 23.2933 42.521 23.4855 42.3229L39.8439 25L23.4855 7.68124Z" fill="#474747"/>
</svg>
