<svg width="28" height="28" viewBox="0 0 28 28" fill="none" xmlns="http://www.w3.org/2000/svg">
<rect width="28" height="28" rx="8" fill="#E0E0E0"/>
<path d="M11.0243 10.1757C10.7899 9.94142 10.4101 9.94142 10.1757 10.1757C9.94142 10.4101 9.94142 10.7899 10.1757 11.0243L13.1515 14L10.1757 16.9757C9.94142 17.2101 9.94142 17.59 10.1757 17.8243C10.4101 18.0586 10.7899 18.0586 11.0243 17.8243L14 14.8485L16.9757 17.8243C17.2101 18.0586 17.59 18.0586 17.8243 17.8243C18.0586 17.59 18.0586 17.2101 17.8243 16.9757L14.8485 14L17.8243 11.0243C18.0586 10.7899 18.0586 10.4101 17.8243 10.1757C17.59 9.94142 17.2101 9.94142 16.9757 10.1757L14 13.1515L11.0243 10.1757Z" fill="#666666"/>
</svg>
