<svg width="72" height="73" viewBox="0 0 72 73" fill="none" xmlns="http://www.w3.org/2000/svg">
<g clip-path="url(#clip0_3_584)">
<path d="M27 12.2826V66.5761M18 12.2826H51C52.5913 12.2826 54.1174 12.9182 55.2426 14.0495C56.3679 15.1809 57 16.7153 57 18.3152V54.5109C57 56.1108 56.3679 57.6453 55.2426 58.7766C54.1174 59.9079 52.5913 60.5435 51 60.5435H18C17.2044 60.5435 16.4413 60.2257 15.8787 59.66C15.3161 59.0944 15 58.3272 15 57.5272V15.2989C15 14.499 15.3161 13.7317 15.8787 13.1661C16.4413 12.6004 17.2044 12.2826 18 12.2826Z" stroke="#474747" stroke-width="2.75" stroke-linecap="round" stroke-linejoin="round"/>
<path d="M39 24.3478H45" stroke="#A7FC00" stroke-width="2.75" stroke-linecap="round" stroke-linejoin="round"/>
<path d="M39 36.4131H45" stroke="#A7FC00" stroke-width="2.75" stroke-linecap="round" stroke-linejoin="round"/>
</g>
<defs>
<clipPath id="clip0_3_584">
<rect width="72" height="72.3913" fill="white" transform="translate(0 0.217407)"/>
</clipPath>
</defs>
</svg>
