<svg width="50" height="50" viewBox="0 0 50 50" fill="none" xmlns="http://www.w3.org/2000/svg">
<path d="M23.4375 23.4375V6.25C23.4375 5.8356 23.6021 5.43817 23.8951 5.14515C24.1882 4.85212 24.5856 4.6875 25 4.6875C25.4144 4.6875 25.8118 4.85212 26.1049 5.14515C26.3979 5.43817 26.5625 5.8356 26.5625 6.25V23.4375H43.75C44.1644 23.4375 44.5618 23.6021 44.8549 23.8951C45.1479 24.1882 45.3125 24.5856 45.3125 25C45.3125 25.4144 45.1479 25.8118 44.8549 26.1049C44.5618 26.3979 44.1644 26.5625 43.75 26.5625H26.5625V43.75C26.5625 44.1644 26.3979 44.5618 26.1049 44.8549C25.8118 45.1479 25.4144 45.3125 25 45.3125C24.5856 45.3125 24.1882 45.1479 23.8951 44.8549C23.6021 44.5618 23.4375 44.1644 23.4375 43.75V26.5625H6.25C5.8356 26.5625 5.43817 26.3979 5.14515 26.1049C4.85212 25.8118 4.6875 25.4144 4.6875 25C4.6875 24.5856 4.85212 24.1882 5.14515 23.8951C5.43817 23.6021 5.8356 23.4375 6.25 23.4375H23.4375Z" fill="#474747"/>
</svg>
